<svg id="Layer_1" data-name="Layer 1" xmlns="http://www.w3.org/2000/svg" viewBox="0 0 120 40"><defs><style>.cls-1{fill:#fff;}</style></defs><title>Artboard 1</title><path class="cls-1" d="M75.35,23.71a10.92,10.92,0,0,1,.36,1.13A40.73,40.73,0,0,0,67.18,29a32.89,32.89,0,0,1,8.17-5.26"/><path class="cls-1" d="M76.1,27.93s-.1-1.37-.1-1.37a34.11,34.11,0,0,0-9.5,5,44.21,44.21,0,0,1,9.61-3.63"/><path class="cls-1" d="M75.9,31.39s.21-1.68.18-1.67C69,31.72,65.72,34,65.72,34A60.26,60.26,0,0,1,75.9,31.39"/><path class="cls-1" d="M75.26,33.25s-2,4.29-11.87,3.77c0,0,3.05-2.1,11.87-3.77"/><path class="cls-1" d="M79.14,20.23V5.85H89V17.43a79,79,0,0,0-9.82,2.8"/><path class="cls-1" d="M79.14,22.06V23.7A85.51,85.51,0,0,1,89,21.43V19.19a65.27,65.27,0,0,0-9.82,2.87"/><path class="cls-1" d="M79.14,27.17V25.5A73,73,0,0,1,89,23.18v2.25s-5.8.79-9.82,1.74"/><path class="cls-1" d="M79.14,28.93c4-1,9.82-1.77,9.82-1.77v2.54s-4.6.34-9.82,1.14Z"/><path class="cls-1" d="M79.14,32.59v3.85H89v-5s-4.21.31-9.82,1.16"/><path class="cls-1" d="M97.43,36.44V30.9c2.33-.16,9.82-.22,9.82-.22v5.77Z"/><path class="cls-1" d="M97.43,29.18V26.32c5-.36,9.82-.34,9.82-.34v3s-4.49,0-9.82.22"/><path class="cls-1" d="M97.43,24.61V22.08c4.51-.45,9.83-.46,9.83-.46v2.64s-5.06,0-9.82.34"/><path class="cls-1" d="M97.43,20.34V17.82a88.92,88.92,0,0,1,9.82-.56v2.64s-3.91,0-9.82.43"/><path class="cls-1" d="M97.43,16.1c4.32-.51,9.82-.55,9.82-.55V12h5.85V5.85H91.62V12h5.81Z"/><path class="cls-1" d="M63,25.48H53.84v2a13,13,0,0,0,.87,5.32,6.77,6.77,0,0,0,3.67,3.08,12.57,12.57,0,0,0,2,.68s.25-2.29,2.73-5.75A9.21,9.21,0,0,1,63,29.23Z"/><path class="cls-1" d="M75.27,15.13V13.92a11,11,0,0,0-.88-5.16A6.58,6.58,0,0,0,70.8,6.25a19,19,0,0,0-6.55-1,17.4,17.4,0,0,0-6,.92,7.22,7.22,0,0,0-3.6,2.54,9.27,9.27,0,0,0-1.11,5.14,8.91,8.91,0,0,0,.79,4,6.75,6.75,0,0,0,2,2.46,46.07,46.07,0,0,0,4.9,2.85,29.78,29.78,0,0,1,4.64,2.77,2.34,2.34,0,0,1,.69,1.31,37.28,37.28,0,0,1,7.93-5l-.08-.09c-1-1.21-3.91-3.08-8.31-5.2A7.46,7.46,0,0,1,63.28,15a4.08,4.08,0,0,1-.53-2.29A2.82,2.82,0,0,1,63.22,11a1.63,1.63,0,0,1,1.36-.58,1.44,1.44,0,0,1,1.18.43,3.67,3.67,0,0,1,.35,2v2.27Z"/><path class="cls-1" d="M49.54,6a41.13,41.13,0,0,0-8.13-2.4l1.13-2.5C40.66.13,35.64.27,32,.58A25.27,25.27,0,0,0,26.43,0c-.45.6-.92,1.16-1.37,1.76-3.45-.74-9.38.62-13.29,3.45l-.46,3,.3.3a14.42,14.42,0,0,0-4.3,3.78L6.9,17.06l2.71,0a17.85,17.85,0,0,1,5.19-4C5.93,28.25,17.23,40.76,29.78,40c10.56-.67,22.71-14.12,14.4-30.21l3.36-1ZM41.12,3.57a14,14,0,0,1-1.85.71L38.8,4l.29-1.77,3-.79Zm1-2.42-3,.82A30.24,30.24,0,0,0,33,.84C35.37.43,40.28.44,42.12,1.16Zm-30.55,7C29.81-4.95,47.74,19.6,32.34,35c-.06.06-3.81.65-3.79.7,16-11.43,2.58-38.42-16.81-27.27ZM25.92,27.27c-2.66-1.4-1.75-6-1.45-6.51a8.16,8.16,0,0,1,4.58-1.09l-.67-3.27-1.46-1.06,1.46-1.55C33,17,33.61,23,33,25.71l-.8-3.27L27.29,21.1l-2.35,1.85C26.09,24.79,26.29,26.93,25.92,27.27ZM24.31,13.66h-.55l2.06-1.3a8.94,8.94,0,0,1,2.35,1.26l-1.55,1.56Zm3.86,2.85.59,2.82L24.6,17.06,24.31,14ZM23.25,13.7a10.73,10.73,0,0,0-2.52.51l2.85-2.48a8,8,0,0,1,1.93.5Zm1,3.53c1,.66,2,1.3,3,2-10.11-.51-7.76,10.17-1.39,8.42C20.72,36.84,8.71,20.13,24.28,17.23ZM24.12,21c-.69,3,.06,5.43,1.58,6.41C23.88,28.1,20.58,23.5,24.12,21ZM9.51,16.81H7.39C16,7.42,26.3,8,31.36,16.43,27.59,10.73,17.65,8.14,9.51,16.81Zm10.3-5.28a13.61,13.61,0,0,1,3.49.15L19.94,14.5c-2,.86-6,2.78-6.47,9.17-1.09,14.38,21.85,13.2,14-2.07l4.36,1.22C36.45,49.45-3.05,30.91,19.81,11.54Zm25,17C39.91,38.35,29.55,42.93,19.18,37c8.92,3.71,18.7-2.52,20-14.87,1.26-12-8-18.92-12.5-20.16C45.76,6,44.31,23.58,39.9,31.43a.52.52,0,1,0-.17,1c.79.17,1.06-.77.5-.94C46.57,19.79,43.6,5.12,28,.34,44.25,1.54,49.65,18.58,44.76,28.5Zm-5.35-24C40,4.32,40.6,4,41.24,3.82A38.89,38.89,0,0,1,48.64,6c-.84.2-1.72.37-2.56.57A23.07,23.07,0,0,0,39.41,4.54Zm5.3,4.73,1.66-2.52,2.69-.57L47.38,8.49Z"/></svg>